<svg width="94" height="94" viewBox="0 0 94 94" fill="none" xmlns="http://www.w3.org/2000/svg">
<path d="M2 12C2 6.47715 6.47715 2 12 2H82C87.5228 2 92 6.47715 92 12V82C92 87.5228 87.5228 92 82 92H12C6.47715 92 2 87.5228 2 82V12Z" fill="#BDBDBD"/>
<mask id="path-2-inside-1_62_208" fill="white">
<path fill-rule="evenodd" clip-rule="evenodd" d="M82 0H12C5.37258 0 0 5.37258 0 12V82C0 88.6274 5.37258 94 12 94H82C88.6274 94 94 88.6274 94 82V12C94 5.37258 88.6274 0 82 0ZM2 12C2 6.47715 6.47715 2 12 2H46.9993C41.1184 2.00014 35.2651 3.15311 29.7792 5.42544C21.5566 8.83139 14.5285 14.5992 9.58386 21.9994C4.6392 29.3996 2 38.0999 2 47V12ZM46.9377 92H12C6.47715 92 2 87.5229 2 82V47C2 55.9002 4.6392 64.6005 9.58387 72.0007C14.5285 79.4009 21.5566 85.1687 29.7792 88.5746C35.246 90.839 41.0776 91.9919 46.9377 92ZM47.0629 92H82C87.5228 92 92 87.5229 92 82V12C92 6.47715 87.5228 2 82 2H47.0014C49.9345 2.00007 52.8744 2.28691 55.7791 2.86468C64.5082 4.60102 72.5264 8.88685 78.8198 15.1802L66.0919 27.9081C62.3159 24.1321 57.5049 21.5606 52.2674 20.5188C47.0299 19.477 41.6012 20.0117 36.6675 22.0553C31.7339 24.0988 27.5171 27.5595 24.5503 31.9996C21.5835 36.4398 20 41.6599 20 47C20 52.3401 21.5835 57.5603 24.5503 62.0004C27.5171 66.4405 31.7339 69.9012 36.6675 71.9448C41.6012 73.9883 47.03 74.523 52.2674 73.4812C57.5049 72.4394 62.3159 69.8679 66.0919 66.0919L78.8198 78.8198C72.5264 85.1132 64.5082 89.399 55.7791 91.1354C52.8947 91.7091 49.9756 91.9959 47.0629 92Z"/>
</mask>
<path fill-rule="evenodd" clip-rule="evenodd" d="M82 0H12C5.37258 0 0 5.37258 0 12V82C0 88.6274 5.37258 94 12 94H82C88.6274 94 94 88.6274 94 82V12C94 5.37258 88.6274 0 82 0ZM2 12C2 6.47715 6.47715 2 12 2H46.9993C41.1184 2.00014 35.2651 3.15311 29.7792 5.42544C21.5566 8.83139 14.5285 14.5992 9.58386 21.9994C4.6392 29.3996 2 38.0999 2 47V12ZM46.9377 92H12C6.47715 92 2 87.5229 2 82V47C2 55.9002 4.6392 64.6005 9.58387 72.0007C14.5285 79.4009 21.5566 85.1687 29.7792 88.5746C35.246 90.839 41.0776 91.9919 46.9377 92ZM47.0629 92H82C87.5228 92 92 87.5229 92 82V12C92 6.47715 87.5228 2 82 2H47.0014C49.9345 2.00007 52.8744 2.28691 55.7791 2.86468C64.5082 4.60102 72.5264 8.88685 78.8198 15.1802L66.0919 27.9081C62.3159 24.1321 57.5049 21.5606 52.2674 20.5188C47.0299 19.477 41.6012 20.0117 36.6675 22.0553C31.7339 24.0988 27.5171 27.5595 24.5503 31.9996C21.5835 36.4398 20 41.6599 20 47C20 52.3401 21.5835 57.5603 24.5503 62.0004C27.5171 66.4405 31.7339 69.9012 36.6675 71.9448C41.6012 73.9883 47.03 74.523 52.2674 73.4812C57.5049 72.4394 62.3159 69.8679 66.0919 66.0919L78.8198 78.8198C72.5264 85.1132 64.5082 89.399 55.7791 91.1354C52.8947 91.7091 49.9756 91.9959 47.0629 92Z" fill="#F9F9F9"/>
<path d="M46.9993 2L46.9993 3L46.9993 1V2ZM29.7792 5.42544L29.3966 4.50156L29.3966 4.50156L29.7792 5.42544ZM9.58386 21.9994L10.4153 22.5549L9.58386 21.9994ZM46.9377 92V93L46.9391 91L46.9377 92ZM29.7792 88.5746L30.1619 87.6507L30.1619 87.6507L29.7792 88.5746ZM47.0629 92L47.0615 91L47.0629 93V92ZM47.0014 2V1L47.0013 3L47.0014 2ZM55.7791 2.86468L55.584 3.84547L55.584 3.84547L55.7791 2.86468ZM78.8198 15.1802L79.5269 15.8873L80.234 15.1802L79.5269 14.4731L78.8198 15.1802ZM66.0919 27.9081L65.3848 28.6152L66.0919 29.3223L66.799 28.6152L66.0919 27.9081ZM66.0919 66.0919L66.799 65.3848L66.0919 64.6777L65.3848 65.3848L66.0919 66.0919ZM78.8198 78.8198L79.5269 79.5269L80.234 78.8198L79.5269 78.1127L78.8198 78.8198ZM55.7791 91.1354L55.584 90.1546L55.584 90.1546L55.7791 91.1354ZM12 1H82V-1H12V1ZM1 12C1 5.92487 5.92487 1 12 1V-1C4.8203 -1 -1 4.8203 -1 12H1ZM1 82V12H-1V82H1ZM12 93C5.92487 93 1 88.0751 1 82H-1C-1 89.1797 4.8203 95 12 95V93ZM82 93H12V95H82V93ZM93 82C93 88.0751 88.0751 93 82 93V95C89.1797 95 95 89.1797 95 82H93ZM93 12V82H95V12H93ZM82 1C88.0751 1 93 5.92487 93 12H95C95 4.8203 89.1797 -1 82 -1V1ZM12 1C5.92487 1 1 5.92487 1 12H3C3 7.02944 7.02944 3 12 3V1ZM46.9993 1H12V3H46.9993V1ZM30.1619 6.34932C35.5259 4.12749 41.2491 3.00013 46.9993 3L46.9992 1C40.9877 1.00014 35.0044 2.17873 29.3966 4.50156L30.1619 6.34932ZM10.4153 22.5549C15.2501 15.3192 22.122 9.67958 30.1619 6.34932L29.3966 4.50156C20.9912 7.9832 13.8069 13.8791 8.7524 21.4438L10.4153 22.5549ZM3 47C3 38.2976 5.58055 29.7907 10.4153 22.5549L8.7524 21.4438C3.69785 29.0085 1 37.9021 1 47H3ZM1 12V47H3V12H1ZM12 93H46.9377V91H12V93ZM1 82C1 88.0751 5.92487 93 12 93V91C7.02944 91 3 86.9706 3 82H1ZM1 47V82H3V47H1ZM10.4153 71.4451C5.58056 64.2094 3 55.7024 3 47H1C1 56.098 3.69785 64.9916 8.7524 72.5563L10.4153 71.4451ZM30.1619 87.6507C22.122 84.3205 15.2501 78.6809 10.4153 71.4451L8.7524 72.5563C13.8069 80.1209 20.9912 86.0168 29.3966 89.4985L30.1619 87.6507ZM46.9391 91C41.2092 90.992 35.5072 89.8648 30.1619 87.6507L29.3966 89.4985C34.9848 91.8132 40.946 92.9917 46.9363 93L46.9391 91ZM47.0629 93H82V91H47.0629V93ZM82 93C88.0751 93 93 88.0751 93 82H91C91 86.9706 86.9706 91 82 91V93ZM93 82V12H91V82H93ZM93 12C93 5.92487 88.0751 1 82 1V3C86.9706 3 91 7.02944 91 12H93ZM82 1H47.0014V3H82V1ZM47.0013 3C49.8693 3.00007 52.7439 3.28053 55.584 3.84547L55.9742 1.8839C53.005 1.29329 49.9997 1.00007 47.0014 1L47.0013 3ZM55.584 3.84547C64.1191 5.54322 71.9592 9.73381 78.1127 15.8873L79.5269 14.4731C73.0937 8.03989 64.8973 3.65881 55.9742 1.8839L55.584 3.84547ZM78.1127 14.4731L65.3848 27.201L66.799 28.6152L79.5269 15.8873L78.1127 14.4731ZM66.799 27.201C62.8831 23.2852 57.894 20.6184 52.4625 19.538L52.0723 21.4996C57.1159 22.5028 61.7486 24.9791 65.3848 28.6152L66.799 27.201ZM52.4625 19.538C47.0311 18.4576 41.4012 19.0121 36.2849 21.1314L37.0502 22.9792C41.8011 21.0113 47.0288 20.4964 52.0723 21.4996L52.4625 19.538ZM36.2849 21.1314C31.1685 23.2506 26.7955 26.8395 23.7188 31.4441L25.3818 32.5552C28.2387 28.2795 32.2993 24.947 37.0502 22.9792L36.2849 21.1314ZM23.7188 31.4441C20.6422 36.0486 19 41.4621 19 47H21C21 41.8577 22.5249 36.8309 25.3818 32.5552L23.7188 31.4441ZM19 47C19 52.5379 20.6422 57.9514 23.7188 62.556L25.3818 61.4448C22.5249 57.1692 21 52.1423 21 47H19ZM23.7188 62.556C26.7955 67.1606 31.1685 70.7494 36.2849 72.8687L37.0502 71.0209C32.2994 69.053 28.2387 65.7205 25.3818 61.4448L23.7188 62.556ZM36.2849 72.8687C41.4012 74.9879 47.0311 75.5424 52.4625 74.462L52.0724 72.5004C47.0288 73.5037 41.8011 72.9888 37.0502 71.0209L36.2849 72.8687ZM52.4625 74.462C57.894 73.3816 62.8831 70.7149 66.799 66.799L65.3848 65.3848C61.7486 69.021 57.1159 71.4972 52.0724 72.5004L52.4625 74.462ZM65.3848 66.799L78.1127 79.5269L79.5269 78.1127L66.799 65.3848L65.3848 66.799ZM78.1127 78.1127C71.9592 84.2662 64.1191 88.4568 55.584 90.1546L55.9742 92.1161C64.8973 90.3412 73.0937 85.9602 79.5269 79.5269L78.1127 78.1127ZM55.584 90.1546C52.7637 90.7156 49.9095 90.996 47.0615 91L47.0643 93C50.0417 92.9959 53.0257 92.7026 55.9742 92.1161L55.584 90.1546Z" fill="black" mask="url(#path-2-inside-1_62_208)"/>
</svg>
