<svg width="360" height="165" viewBox="0 0 360 165" fill="none" xmlns="http://www.w3.org/2000/svg">
<path d="M359.5 155C359.5 160.247 355.247 164.5 350 164.5L10 164.5C4.7533 164.5 0.5 160.247 0.5 155V0.5L359.5 0.5V155Z" fill="#BDBDBD" stroke="black"/>
<g filter="url(#filter0_i_10_370)">
<rect x="29" y="14" width="302" height="62" rx="11" stroke="black" stroke-width="2" stroke-linecap="square" stroke-linejoin="round"/>
</g>
<mask id="path-3-inside-1_10_370" fill="white">
<path d="M170 45C170 61.5685 156.569 75 140 75C123.431 75 110 61.5685 110 45C110 28.4315 123.431 15 140 15C156.569 15 170 28.4315 170 45ZM122 45C122 54.9411 130.059 63 140 63C149.941 63 158 54.9411 158 45C158 35.0589 149.941 27 140 27C130.059 27 122 35.0589 122 45Z"/>
</mask>
<path d="M170 45C170 61.5685 156.569 75 140 75C123.431 75 110 61.5685 110 45C110 28.4315 123.431 15 140 15C156.569 15 170 28.4315 170 45ZM122 45C122 54.9411 130.059 63 140 63C149.941 63 158 54.9411 158 45C158 35.0589 149.941 27 140 27C130.059 27 122 35.0589 122 45Z" fill="#F9F9F9" stroke="black" stroke-width="2" mask="url(#path-3-inside-1_10_370)"/>
<mask id="path-4-inside-2_10_370" fill="white">
<path d="M330 45C330 50.9334 328.241 56.7336 324.944 61.6671C321.648 66.6006 316.962 70.4458 311.481 72.7164C305.999 74.987 299.967 75.5811 294.147 74.4236C288.328 73.266 282.982 70.4088 278.787 66.2132C274.591 62.0176 271.734 56.6721 270.576 50.8527C269.419 45.0333 270.013 39.0013 272.284 33.5195C274.554 28.0377 278.399 23.3524 283.333 20.0559C288.266 16.7595 294.067 15 300 15V27C296.44 27 292.96 28.0557 290 30.0335C287.04 32.0114 284.733 34.8226 283.37 38.1117C282.008 41.4008 281.651 45.02 282.346 48.5116C283.04 52.0033 284.755 55.2106 287.272 57.7279C289.789 60.2453 292.997 61.9596 296.488 62.6541C299.98 63.3487 303.599 62.9922 306.888 61.6298C310.177 60.2675 312.989 57.9604 314.966 55.0003C316.944 52.0402 318 48.5601 318 45H330Z"/>
</mask>
<path d="M330 45C330 50.9334 328.241 56.7336 324.944 61.6671C321.648 66.6006 316.962 70.4458 311.481 72.7164C305.999 74.987 299.967 75.5811 294.147 74.4236C288.328 73.266 282.982 70.4088 278.787 66.2132C274.591 62.0176 271.734 56.6721 270.576 50.8527C269.419 45.0333 270.013 39.0013 272.284 33.5195C274.554 28.0377 278.399 23.3524 283.333 20.0559C288.266 16.7595 294.067 15 300 15V27C296.44 27 292.96 28.0557 290 30.0335C287.04 32.0114 284.733 34.8226 283.37 38.1117C282.008 41.4008 281.651 45.02 282.346 48.5116C283.04 52.0033 284.755 55.2106 287.272 57.7279C289.789 60.2453 292.997 61.9596 296.488 62.6541C299.98 63.3487 303.599 62.9922 306.888 61.6298C310.177 60.2675 312.989 57.9604 314.966 55.0003C316.944 52.0402 318 48.5601 318 45H330Z" fill="#F9F9F9" stroke="black" stroke-width="2" mask="url(#path-4-inside-2_10_370)"/>
<path d="M249.5 45C249.5 61.2924 236.292 74.5 220 74.5C203.708 74.5 190.5 61.2924 190.5 45C190.5 28.7076 203.708 15.5 220 15.5C236.292 15.5 249.5 28.7076 249.5 45ZM201.5 45C201.5 55.2173 209.783 63.5 220 63.5C230.217 63.5 238.5 55.2173 238.5 45C238.5 34.7827 230.217 26.5 220 26.5C209.783 26.5 201.5 34.7827 201.5 45Z" fill="#F9F9F9" stroke="black"/>
<mask id="path-6-inside-3_10_370" fill="white">
<path d="M81.2132 66.2132C77.0176 70.4088 71.6721 73.266 65.8527 74.4236C60.0333 75.5811 54.0013 74.987 48.5195 72.7164C43.0377 70.4458 38.3524 66.6006 35.0559 61.6671C31.7595 56.7336 30 50.9334 30 45C30 39.0666 31.7595 33.2664 35.0559 28.3329C38.3524 23.3994 43.0377 19.5542 48.5195 17.2836C54.0013 15.013 60.0333 14.4189 65.8527 15.5764C71.6721 16.734 77.0176 19.5912 81.2132 23.7868L72.7279 32.2721C70.2106 29.7547 67.0033 28.0404 63.5116 27.3459C60.02 26.6513 56.4008 27.0078 53.1117 28.3702C49.8226 29.7325 47.0114 32.0397 45.0335 34.9997C43.0557 37.9598 42 41.4399 42 45C42 48.5601 43.0557 52.0402 45.0335 55.0003C47.0114 57.9604 49.8226 60.2675 53.1117 61.6298C56.4008 62.9922 60.02 63.3487 63.5116 62.6541C67.0033 61.9596 70.2106 60.2453 72.7279 57.7279L81.2132 66.2132Z"/>
</mask>
<path d="M81.2132 66.2132C77.0176 70.4088 71.6721 73.266 65.8527 74.4236C60.0333 75.5811 54.0013 74.987 48.5195 72.7164C43.0377 70.4458 38.3524 66.6006 35.0559 61.6671C31.7595 56.7336 30 50.9334 30 45C30 39.0666 31.7595 33.2664 35.0559 28.3329C38.3524 23.3994 43.0377 19.5542 48.5195 17.2836C54.0013 15.013 60.0333 14.4189 65.8527 15.5764C71.6721 16.734 77.0176 19.5912 81.2132 23.7868L72.7279 32.2721C70.2106 29.7547 67.0033 28.0404 63.5116 27.3459C60.02 26.6513 56.4008 27.0078 53.1117 28.3702C49.8226 29.7325 47.0114 32.0397 45.0335 34.9997C43.0557 37.9598 42 41.4399 42 45C42 48.5601 43.0557 52.0402 45.0335 55.0003C47.0114 57.9604 49.8226 60.2675 53.1117 61.6298C56.4008 62.9922 60.02 63.3487 63.5116 62.6541C67.0033 61.9596 70.2106 60.2453 72.7279 57.7279L81.2132 66.2132Z" fill="#F9F9F9" stroke="black" stroke-width="2" mask="url(#path-6-inside-3_10_370)"/>
<g filter="url(#filter1_i_10_370)">
<rect x="29" y="89" width="302" height="62" rx="11" stroke="black" stroke-width="2" stroke-linecap="square" stroke-linejoin="round"/>
</g>
<mask id="path-8-inside-4_10_370" fill="white">
<path d="M170 120C170 136.569 156.569 150 140 150C123.431 150 110 136.569 110 120C110 103.431 123.431 90 140 90C156.569 90 170 103.431 170 120ZM122 120C122 129.941 130.059 138 140 138C149.941 138 158 129.941 158 120C158 110.059 149.941 102 140 102C130.059 102 122 110.059 122 120Z"/>
</mask>
<path d="M170 120C170 136.569 156.569 150 140 150C123.431 150 110 136.569 110 120C110 103.431 123.431 90 140 90C156.569 90 170 103.431 170 120ZM122 120C122 129.941 130.059 138 140 138C149.941 138 158 129.941 158 120C158 110.059 149.941 102 140 102C130.059 102 122 110.059 122 120Z" fill="#F9F9F9" stroke="black" stroke-width="2" mask="url(#path-8-inside-4_10_370)"/>
<mask id="path-9-inside-5_10_370" fill="white">
<path d="M81.2132 141.213C77.0176 145.409 71.6721 148.266 65.8527 149.424C60.0333 150.581 54.0013 149.987 48.5195 147.716C43.0377 145.446 38.3524 141.601 35.0559 136.667C31.7595 131.734 30 125.933 30 120C30 114.067 31.7595 108.266 35.0559 103.333C38.3524 98.3994 43.0377 94.5542 48.5195 92.2836C54.0013 90.013 60.0333 89.4189 65.8527 90.5764C71.6721 91.734 77.0176 94.5912 81.2132 98.7868L72.7279 107.272C70.2106 104.755 67.0033 103.04 63.5116 102.346C60.02 101.651 56.4008 102.008 53.1117 103.37C49.8226 104.733 47.0114 107.04 45.0335 110C43.0557 112.96 42 116.44 42 120C42 123.56 43.0557 127.04 45.0335 130C47.0114 132.96 49.8226 135.267 53.1117 136.63C56.4008 137.992 60.02 138.349 63.5116 137.654C67.0033 136.96 70.2106 135.245 72.7279 132.728L81.2132 141.213Z"/>
</mask>
<path d="M81.2132 141.213C77.0176 145.409 71.6721 148.266 65.8527 149.424C60.0333 150.581 54.0013 149.987 48.5195 147.716C43.0377 145.446 38.3524 141.601 35.0559 136.667C31.7595 131.734 30 125.933 30 120C30 114.067 31.7595 108.266 35.0559 103.333C38.3524 98.3994 43.0377 94.5542 48.5195 92.2836C54.0013 90.013 60.0333 89.4189 65.8527 90.5764C71.6721 91.734 77.0176 94.5912 81.2132 98.7868L72.7279 107.272C70.2106 104.755 67.0033 103.04 63.5116 102.346C60.02 101.651 56.4008 102.008 53.1117 103.37C49.8226 104.733 47.0114 107.04 45.0335 110C43.0557 112.96 42 116.44 42 120C42 123.56 43.0557 127.04 45.0335 130C47.0114 132.96 49.8226 135.267 53.1117 136.63C56.4008 137.992 60.02 138.349 63.5116 137.654C67.0033 136.96 70.2106 135.245 72.7279 132.728L81.2132 141.213Z" fill="#F9F9F9" stroke="black" stroke-width="2" mask="url(#path-9-inside-5_10_370)"/>
<path d="M249.5 120C249.5 136.292 236.292 149.5 220 149.5C203.708 149.5 190.5 136.292 190.5 120C190.5 103.708 203.708 90.5 220 90.5C236.292 90.5 249.5 103.708 249.5 120ZM201.5 120C201.5 130.217 209.783 138.5 220 138.5C230.217 138.5 238.5 130.217 238.5 120C238.5 109.783 230.217 101.5 220 101.5C209.783 101.5 201.5 109.783 201.5 120Z" fill="#F9F9F9" stroke="black"/>
<mask id="path-11-inside-6_10_370" fill="white">
<path fill-rule="evenodd" clip-rule="evenodd" d="M309.853 149.424C315.672 148.266 321.018 145.409 325.213 141.213L316.728 132.728C314.211 135.245 311.003 136.96 307.512 137.654C304.02 138.349 300.401 137.992 297.112 136.63C293.823 135.267 291.011 132.96 289.034 130C287.056 127.04 286 123.56 286 120C286 116.44 287.056 112.96 289.034 110C291.011 107.04 293.823 104.733 297.112 103.37C300.401 102.008 304.02 101.651 307.512 102.346C311.003 103.04 314.211 104.755 316.728 107.272L325.213 98.7868C321.018 94.5912 315.672 91.734 309.853 90.5765C304.033 89.4189 298.001 90.013 292.519 92.2836C290.187 93.2498 287.999 94.5011 286 96V90H274V120V150H286V144C287.999 145.499 290.187 146.75 292.519 147.716C298.001 149.987 304.033 150.581 309.853 149.424Z"/>
</mask>
<path fill-rule="evenodd" clip-rule="evenodd" d="M309.853 149.424C315.672 148.266 321.018 145.409 325.213 141.213L316.728 132.728C314.211 135.245 311.003 136.96 307.512 137.654C304.02 138.349 300.401 137.992 297.112 136.63C293.823 135.267 291.011 132.96 289.034 130C287.056 127.04 286 123.56 286 120C286 116.44 287.056 112.96 289.034 110C291.011 107.04 293.823 104.733 297.112 103.37C300.401 102.008 304.02 101.651 307.512 102.346C311.003 103.04 314.211 104.755 316.728 107.272L325.213 98.7868C321.018 94.5912 315.672 91.734 309.853 90.5765C304.033 89.4189 298.001 90.013 292.519 92.2836C290.187 93.2498 287.999 94.5011 286 96V90H274V120V150H286V144C287.999 145.499 290.187 146.75 292.519 147.716C298.001 149.987 304.033 150.581 309.853 149.424Z" fill="#F9F9F9"/>
<path d="M325.213 141.213L325.92 141.92L326.627 141.213L325.92 140.506L325.213 141.213ZM309.853 149.424L309.658 148.443L309.853 149.424ZM316.728 132.728L317.435 132.021L316.728 131.314L316.021 132.021L316.728 132.728ZM307.512 137.654L307.707 138.635H307.707L307.512 137.654ZM289.034 130L289.865 129.445L289.034 130ZM297.112 103.37L296.729 102.446L297.112 103.37ZM316.728 107.272L316.021 107.979L316.728 108.686L317.435 107.979L316.728 107.272ZM325.213 98.7868L325.92 99.4939L326.627 98.7868L325.92 98.0797L325.213 98.7868ZM309.853 90.5765L310.048 89.5957V89.5957L309.853 90.5765ZM292.519 92.2836L292.902 93.2075V93.2075L292.519 92.2836ZM286 96H285V98L286.6 96.8L286 96ZM286 90H287V89H286V90ZM274 90V89H273V90H274ZM274 150H273V151H274V150ZM286 150V151H287V150H286ZM286 144L286.6 143.2L285 142V144H286ZM292.519 147.716L292.902 146.793V146.793L292.519 147.716ZM324.506 140.506C320.45 144.562 315.283 147.324 309.658 148.443L310.048 150.404C316.061 149.208 321.585 146.256 325.92 141.92L324.506 140.506ZM316.021 133.435L324.506 141.92L325.92 140.506L317.435 132.021L316.021 133.435ZM307.707 138.635C311.392 137.902 314.778 136.092 317.435 133.435L316.021 132.021C313.643 134.398 310.614 136.017 307.317 136.673L307.707 138.635ZM296.729 137.554C300.201 138.992 304.021 139.368 307.707 138.635L307.317 136.673C304.019 137.329 300.601 136.993 297.494 135.706L296.729 137.554ZM288.202 130.556C290.29 133.68 293.257 136.116 296.729 137.554L297.494 135.706C294.388 134.419 291.733 132.24 289.865 129.445L288.202 130.556ZM285 120C285 123.758 286.114 127.431 288.202 130.556L289.865 129.445C287.997 126.649 287 123.362 287 120H285ZM288.202 109.444C286.114 112.569 285 116.242 285 120H287C287 116.638 287.997 113.351 289.865 110.555L288.202 109.444ZM296.729 102.446C293.257 103.884 290.29 106.32 288.202 109.444L289.865 110.555C291.733 107.76 294.388 105.581 297.494 104.294L296.729 102.446ZM307.707 101.365C304.021 100.632 300.201 101.008 296.729 102.446L297.494 104.294C300.601 103.007 304.019 102.671 307.317 103.327L307.707 101.365ZM317.435 106.565C314.778 103.908 311.392 102.098 307.707 101.365L307.317 103.327C310.614 103.983 313.643 105.602 316.021 107.979L317.435 106.565ZM324.506 98.0797L316.021 106.565L317.435 107.979L325.92 99.4939L324.506 98.0797ZM309.658 91.5572C315.283 92.6762 320.45 95.4382 324.506 99.4939L325.92 98.0797C321.585 93.7443 316.061 90.7918 310.048 89.5957L309.658 91.5572ZM292.902 93.2075C298.201 91.0126 304.032 90.4383 309.658 91.5572L310.048 89.5957C304.034 88.3995 297.801 89.0134 292.137 91.3598L292.902 93.2075ZM286.6 96.8C288.532 95.3511 290.647 94.1415 292.902 93.2075L292.137 91.3598C289.726 92.3581 287.465 93.6511 285.4 95.2L286.6 96.8ZM285 90V96H287V90H285ZM274 91H286V89H274V91ZM275 120V90H273V120H275ZM275 150V120H273V150H275ZM286 149H274V151H286V149ZM285 144V150H287V144H285ZM292.902 146.793C290.647 145.859 288.532 144.649 286.6 143.2L285.4 144.8C287.465 146.349 289.726 147.642 292.137 148.64L292.902 146.793ZM309.658 148.443C304.032 149.562 298.201 148.987 292.902 146.793L292.137 148.64C297.801 150.987 304.034 151.601 310.048 150.404L309.658 148.443Z" fill="black" mask="url(#path-11-inside-6_10_370)"/>
<defs>
<filter id="filter0_i_10_370" x="28" y="13" width="304" height="68" filterUnits="userSpaceOnUse" color-interpolation-filters="sRGB">
<feFlood flood-opacity="0" result="BackgroundImageFix"/>
<feBlend mode="normal" in="SourceGraphic" in2="BackgroundImageFix" result="shape"/>
<feColorMatrix in="SourceAlpha" type="matrix" values="0 0 0 0 0 0 0 0 0 0 0 0 0 0 0 0 0 0 127 0" result="hardAlpha"/>
<feOffset dy="4"/>
<feGaussianBlur stdDeviation="2"/>
<feComposite in2="hardAlpha" operator="arithmetic" k2="-1" k3="1"/>
<feColorMatrix type="matrix" values="0 0 0 0 0 0 0 0 0 0 0 0 0 0 0 0 0 0 0.25 0"/>
<feBlend mode="normal" in2="shape" result="effect1_innerShadow_10_370"/>
</filter>
<filter id="filter1_i_10_370" x="28" y="88" width="304" height="68" filterUnits="userSpaceOnUse" color-interpolation-filters="sRGB">
<feFlood flood-opacity="0" result="BackgroundImageFix"/>
<feBlend mode="normal" in="SourceGraphic" in2="BackgroundImageFix" result="shape"/>
<feColorMatrix in="SourceAlpha" type="matrix" values="0 0 0 0 0 0 0 0 0 0 0 0 0 0 0 0 0 0 127 0" result="hardAlpha"/>
<feOffset dy="4"/>
<feGaussianBlur stdDeviation="2"/>
<feComposite in2="hardAlpha" operator="arithmetic" k2="-1" k3="1"/>
<feColorMatrix type="matrix" values="0 0 0 0 0 0 0 0 0 0 0 0 0 0 0 0 0 0 0.25 0"/>
<feBlend mode="normal" in2="shape" result="effect1_innerShadow_10_370"/>
</filter>
</defs>
</svg>
